name C:\Users\u0101727\Documents\MyRepositories\upper-imu-dc\Results\main_tracking\Case_16\kinematics.mot
datacolumns 10
datarows 56
range 4.62000000 5.17000000
endheader 
time	clav_prot	clav_elev	scapula_abduction	scapula_elevation	scapula_upward_rot	scapula_winging	plane_elv	shoulder_elv	axial_rot	
          4.62000000	        -50.39980434	         18.85894270	        -15.98042217	          3.78591653	         79.15210756	        -18.78843581	         -7.45184385	         22.95111589	         20.07339016	
          4.63000000	        -50.69077231	         18.90962980	        -16.27267462	          3.81745566	         79.39277416	        -19.00157906	         -6.80888195	         23.03548293	         19.65003261	
          4.64000000	        -50.97429993	         18.95778097	        -16.55986807	          3.84737670	         79.62280112	        -19.21127326	         -6.15327250	         23.13059531	         19.21588800	
          4.65000000	        -51.25056295	         19.00289896	        -16.84204803	          3.87531184	         79.84223803	        -19.41752116	         -5.48598383	         23.23691854	         18.77224650	
          4.66000000	        -51.52002721	         19.04428888	        -17.11942179	          3.90077448	         80.05140705	        -19.62051866	         -4.80820847	         23.35449368	         18.31953449	
          4.67000000	        -51.78335782	         19.08111886	        -17.39227882	          3.92320273	         80.25085181	        -19.82059475	         -4.12133088	         23.48300491	         17.85736644	
          4.68000000	        -52.04131080	         19.11252411	        -17.66095126	          3.94202425	         80.44122294	        -20.01814791	         -3.42674105	         23.62185941	         17.38486657	
          4.69000000	        -52.29464119	         19.13778338	        -17.92585454	          3.95676101	         80.62313040	        -20.21360698	         -2.72552981	         23.77021572	         16.90117254	
          4.70000000	        -52.54403649	         19.15654608	        -18.18758055	          3.96716361	         80.79700480	        -20.40741698	         -2.01819948	         23.92696063	         16.40595779	
          4.71000000	        -52.79006270	         19.16903736	        -18.44696911	          3.97333347	         80.96299954	        -20.60002719	         -1.30453413	         24.09069894	         15.89978444	
          4.72000000	        -53.03310798	         19.17614728	        -18.70508000	          3.97577734	         81.12095725	        -20.79185548	         -0.58372592	         24.25983231	         15.38414674	
          4.73000000	        -53.27332168	         19.17933494	        -18.96301871	          3.97535382	         81.27046329	        -20.98321461	          0.14521194	         24.43276026	         14.86117492	
          4.74000000	        -53.51056268	         19.18034630	        -19.22164214	          3.97311008	         81.41098324	        -21.17421173	          0.88284125	         24.60816842	         14.33305840	
          4.75000000	        -53.74437935	         19.18081305	        -19.48122444	          3.97004856	         81.54206129	        -21.36465004	          1.62866987	         24.78531541	         13.80137891	
          4.76000000	        -53.97403825	         19.18185399	        -19.74120276	          3.96689305	         81.66351940	        -21.55397140	          2.38072584	         24.96421402	         13.26661782	
          4.77000000	        -54.19860553	         19.18379853	        -20.00010829	          3.96392196	         81.77558369	        -21.74127054	          3.13553559	         25.14563768	         12.72807082	
          4.78000000	        -54.41706874	         19.18609792	        -20.25571744	          3.96090631	         81.87889572	        -21.92538790	          3.88855940	         25.33094996	         12.18423620	
          4.79000000	        -54.62847797	         19.18741259	        -20.50537340	          3.95714709	         81.97442056	        -22.10506076	          4.63495461	         25.52181860	         11.63352999	
          4.80000000	        -54.83208156	         19.18583375	        -20.74638253	          3.95159276	         82.06330676	        -22.27909737	          5.37040516	         25.71989022	         11.07502336	
          4.81000000	        -55.02743784	         19.17920005	        -20.97640328	          3.94301859	         82.14675169	        -22.44654243	          6.09178368	         25.92648141	         10.50893446	
          4.82000000	        -55.21448979	         19.16547617	        -21.19377333	          3.93025096	         82.22590445	        -22.60681135	          6.79751288	         26.14231541	          9.93675211	
          4.83000000	        -55.39359054	         19.14315303	        -21.39774346	          3.91241189	         82.30180504	        -22.75977673	          7.48761350	         26.36732977	          9.36103860	
          4.84000000	        -55.56546881	         19.11160606	        -21.58859524	          3.88914185	         82.37533538	        -22.90579324	          8.16351113	         26.60059238	          8.78505772	
          4.85000000	        -55.73113085	         19.07133310	        -21.76762243	          3.86074940	         82.44716008	        -23.04565234	          8.82769420	         26.84036608	          8.21238149	
          4.86000000	        -55.89170825	         19.02400547	        -21.93696283	          3.82824573	         82.51765931	        -23.18046665	          9.48328140	         27.08433817	          7.64658626	
          4.87000000	        -56.04827658	         18.97229769	        -22.09928935	          3.79324293	         82.58687630	        -23.31149728	         10.13353827	         27.32999334	          7.09105283	
          4.88000000	        -56.20167785	         18.91951240	        -22.25739518	          3.75772791	         82.65451264	        -23.43994798	         10.78136399	         27.57506741	          6.54882977	
          4.89000000	        -56.35237751	         18.86906682	        -22.41373331	          3.72375369	         82.71999164	        -23.56675673	         11.42877873	         27.81799570	          6.02250465	
          4.90000000	        -56.50037951	         18.82393915	        -22.56998653	          3.69310867	         82.78258862	        -23.69241739	         12.07646418	         28.05826644	          5.51404698	
          4.91000000	        -56.64521815	         18.78618583	        -22.72675165	          3.66703088	         82.84160856	        -23.81686790	         12.72344048	         28.29659605	          5.02463466	
          4.92000000	        -56.78604059	         18.75663358	        -22.88341723	          3.64602919	         82.89658126	        -23.93948091	         13.36698212	         28.53486041	          4.55452635	
          4.93000000	        -56.92177797	         18.73481891	        -23.03828069	          3.62985400	         82.94743693	        -24.05917614	         14.00284479	         28.77576344	          4.10305623	
          4.94000000	        -57.05137118	         18.71918681	        -23.18888530	          3.61762240	         82.99462030	        -24.17463561	         14.62578720	         29.02230546	          3.66878905	
          4.95000000	        -57.17398992	         18.70748882	        -23.33248906	          3.60805899	         83.03910393	        -24.28456326	         15.23027243	         29.27719072	          3.24981153	
          4.96000000	        -57.28918416	         18.69726644	        -23.46654365	          3.59978174	         83.08228502	        -24.38791680	         15.81118786	         29.54233335	          2.84409618	
          4.97000000	        -57.39693647	         18.68629163	        -23.58907462	          3.59155580	         83.12578774	        -24.48405749	         16.36444060	         29.81857452	          2.44986379	
          4.98000000	        -57.49762026	         18.67285780	        -23.69889457	          3.58245336	         83.17122297	        -24.57279634	         16.88734485	         30.10565028	          2.06589000	
          4.99000000	        -57.59189390	         18.65587279	        -23.79563475	          3.57189375	         83.21996528	        -24.65434734	         17.37877749	         30.40237737	          1.69171963	
          5.00000000	        -57.68056948	         18.63478345	        -23.87963299	          3.55958563	         83.27299110	        -24.72922084	         17.83912389	         30.70697032	          1.32777658	
          5.01000000	        -57.76449153	         18.60940728	        -23.95174077	          3.54541934	         83.33080458	        -24.79809697	         18.27006111	         31.01738446	          0.97534985	
          5.02000000	        -57.84444652	         18.57975630	        -24.01311540	          3.52936167	         83.39344678	        -24.86171197	         18.67424110	         31.33160397	          0.63648834	
          5.03000000	        -57.92110811	         18.54587271	        -24.06500409	          3.51136641	         83.46060058	        -24.92076315	         19.05487857	         31.64784035	          0.31371782	
          5.04000000	        -57.99511300	         18.50785386	        -24.10867688	          3.49141528	         83.53186153	        -24.97593819	         19.41535342	         31.96440782	          0.00960007	
          5.05000000	        -58.06695193	         18.46571661	        -24.14519148	          3.46944227	         83.60677573	        -25.02778167	         19.75874393	         32.27996730	         -0.27357078	
          5.06000000	        -58.13684286	         18.41928616	        -24.17516991	          3.44526985	         83.68483799	        -25.07655286	         20.08737580	         32.59377213	         -0.53409074	
          5.07000000	        -58.20482757	         18.36840516	        -24.19886086	          3.41876041	         83.76572415	        -25.12230644	         20.40253514	         32.90537309	         -0.77133090	
          5.08000000	        -58.27074876	         18.31299865	        -24.21610768	          3.38986229	         83.84932786	        -25.16487103	         20.70428004	         33.21458625	         -0.98599543	
          5.09000000	        -58.33424755	         18.25314753	        -24.22640119	          3.35865151	         83.93572010	        -25.20386362	         20.99149841	         33.52144995	         -1.18007476	
          5.10000000	        -58.39478364	         18.18909257	        -24.22895989	          3.32532519	         84.02507652	        -25.23872326	         21.26215734	         33.82619727	         -1.35660501	
          5.11000000	        -58.45168205	         18.12118383	        -24.22283753	          3.29015752	         84.11758948	        -25.26876667	         21.51370170	         34.12923308	         -1.51926026	
          5.12000000	        -58.50420124	         18.04981387	        -24.20705015	          3.25344518	         84.21338669	        -25.29326182	         21.74351131	         34.43109698	         -1.67190607	
          5.13000000	        -58.55161131	         17.97540125	        -24.18072705	          3.21548547	         84.31246362	        -25.31151661	         21.94932528	         34.73238557	         -1.81821497	
          5.14000000	        -58.59327377	         17.89846502	        -24.14328393	          3.17661373	         84.41463540	        -25.32297964	         22.12957164	         35.03361913	         -1.96141411	
          5.15000000	        -58.62871699	         17.81978764	        -24.09460600	          3.13729958	         84.51951218	        -25.32734665	         22.28357910	         35.33505822	         -2.10417007	
          5.16000000	        -58.65769948	         17.74060359	        -24.03520567	          3.09826291	         84.62649872	        -25.32465597	         22.41167666	         35.63651243	         -2.24856558	
          5.17000000	        -58.68024779	         17.66271175	        -23.96630011	          3.06054585	         84.73481563	        -25.31534394	         22.51519254	         35.93721433	         -2.39610145	
